The Twilight Saga Breaking Dawn Part 2 2012 TS 720P NEW Xvid AC3-ADTRG


IMDB: http://www.imdb.com/title/tt1673434/


Complete name : The Twilight Saga Breaking Dawn Part 2 2012 TS 720P Xvid Ac3-ADTRG.avi
Encoder : Sp1
Source : Leem3rx0 [Thanks]
Format : AVI
Format/Info : Audio Video Interleave
Format profile : OpenDML
File size : 2.15 GiB
Duration : 1h 42mn
Overall bit rate : 2 999 Kbps
Writing application : VirtualDubMod 1.5.10.2 (build 2540/release)
Writing library : VirtualDubMod build 2540/release

Video
ID : 0
Format : MPEG-4 Visual
Format profile : Advanced Simple@L5
Format settings, BVOP : 2
Format settings, QPel : No
Format settings, GMC : No warppoints
Format settings, Matrix : Default (H.263)
Muxing mode : Packed bitstream
Codec ID : XVID
Codec ID/Hint : XviD
Duration : 1h 42mn
Bit rate : 2 795 Kbps
Width : 1 280 pixels
Height : 540 pixels
Display aspect ratio : 2.35:1
Frame rate : 25.000 fps
Color space : YUV
Chroma subsampling : 4:2:0
Bit depth : 8 bits
Scan type : Progressive
Compression mode : Lossy
Bits/(Pixel*Frame) : 0.162
Stream size : 2.00 GiB (93%)
Writing library : XviD 64

Audio
ID : 1
Format : AC-3
Format/Info : Audio Coding 3
Mode extension : CM (complete main)
Codec ID : 2000
Duration : 1h 42mn
Bit rate mode : Constant
Bit rate : 192 Kbps
Channel(s) : 2 channels
Channel positions : Front: L R
Sampling rate : 48.0 KHz
Bit depth : 16 bits
Compression mode : Lossy
Stream size : 141 MiB (6%)
Alignment : Split accross interleaves
Interleave, duration : 40 ms (1.00 video frame)
Interleave, preload duration : 500 ms


Notes :

Was passed a nice vid so applied filters
could name them but wont bore you
corrected a/r then synced and muxed our
line very watchable indeed


Poster:

 
http://imgon.net/di-VS4D.jpg


Screenshots:

 
http://imgon.net/di-GN76.jpg

 
http://imgon.net/di-TV48.jpg

 
http://imgon.net/di-67MA.jpg


ENJOY!